<svg width="24" height="24" viewBox="0 0 24 24" fill="none" xmlns="http://www.w3.org/2000/svg">
<g clip-path="url(#clip0_2174_1074)">
<path fill-rule="evenodd" clip-rule="evenodd" d="M6.70221 2.62344C8.10763 1.21802 10.0138 0.428467 12.0014 0.428467C13.9889 0.428467 15.8951 1.21803 17.3004 2.62344C18.706 4.02886 19.4954 5.93503 19.4954 7.9226C19.4954 8.85398 19.6475 9.74407 19.8902 10.6886C19.9523 10.8805 20.0198 11.0608 20.0918 11.2301C20.189 11.4586 20.3855 11.6559 20.7629 11.8974C20.9104 11.9918 21.0612 12.0785 21.2327 12.177L21.3929 12.2694C21.6211 12.4015 21.8779 12.5549 22.1232 12.7364C23.0099 13.3929 23.3359 14.4045 23.2919 15.3165C23.249 16.204 22.8511 17.1291 22.1087 17.6874C22.0985 17.6954 22.0871 17.7042 22.0744 17.7136C22.0442 17.7362 22.0065 17.7626 21.9602 17.7923C21.8678 17.8518 21.7413 17.9243 21.5726 18.005C21.2357 18.1664 20.7278 18.3616 19.9807 18.5505C18.4895 18.9273 16.0195 19.2856 12.0014 19.2856C7.98321 19.2856 5.51318 18.9273 4.02201 18.5505C3.27494 18.3616 2.76703 18.1664 2.43009 18.005C2.26139 17.9243 2.13494 17.8518 2.04251 17.7923C1.99627 17.7626 1.95856 17.7362 1.92832 17.7136C1.91562 17.7042 1.90422 17.6954 1.89409 17.6874C1.15161 17.1291 0.753781 16.204 0.710924 15.3165C0.666882 14.4045 0.992811 13.3929 1.87957 12.7364L2.38957 13.4253L1.87957 12.7364C2.12481 12.5548 2.38156 12.4015 2.60971 12.2694L2.77005 12.177L2.77009 12.177C2.94153 12.0785 3.09242 11.9918 3.23983 11.8975C3.61723 11.656 3.81366 11.4587 3.91081 11.2302C4.25761 10.4146 4.50722 9.3373 4.50722 7.9226C4.50722 5.93503 5.29679 4.02886 6.70221 2.62344ZM10.0099 20.5449C9.6765 20.4314 9.30772 20.5334 9.08001 20.8021C8.85232 21.0707 8.81203 21.4513 8.97846 21.7616C9.55523 22.8369 10.6919 23.5713 12.0014 23.5713C13.3109 23.5713 14.4476 22.8369 15.0243 21.7616C15.1908 21.4513 15.1505 21.0707 14.9228 20.8021C14.6951 20.5334 14.3263 20.4314 13.993 20.5449C13.5588 20.6925 12.9174 20.8055 12.0014 20.8055C11.0855 20.8055 10.444 20.6925 10.0099 20.5449Z" fill="#E2E2E2"/>
<circle cx="20" cy="4" r="3.5" fill="#2768FF" stroke="white"/>
</g>
<defs>
<clipPath id="clip0_2174_1074">
<rect width="24" height="24" fill="white"/>
</clipPath>
</defs>
</svg>
