<svg width="36" height="36" viewBox="0 0 36 36" fill="none" xmlns="http://www.w3.org/2000/svg">
<rect width="36" height="36" rx="18" fill="#DBDBE2"/>
<g clip-path="url(#clip0_2174_804)">
<path fill-rule="evenodd" clip-rule="evenodd" d="M13.5839 10.1861C14.7551 9.0149 16.3435 8.35693 17.9998 8.35693C19.6561 8.35693 21.2446 9.0149 22.4157 10.1861C23.587 11.3573 24.2449 12.9457 24.2449 14.602C24.2449 15.3782 24.3716 16.1199 24.5739 16.9071C24.6256 17.067 24.6819 17.2172 24.7419 17.3583C24.8229 17.5487 24.9866 17.7132 25.3011 17.9144C25.424 17.993 25.5497 18.0653 25.6926 18.1474L25.8261 18.2243C26.0163 18.3345 26.2303 18.4623 26.4347 18.6135C27.1736 19.1606 27.4453 20.0036 27.4086 20.7636C27.3729 21.5032 27.0413 22.2741 26.4226 22.7394C26.4141 22.7461 26.4046 22.7534 26.394 22.7612C26.3689 22.7801 26.3374 22.8021 26.2989 22.8268C26.2219 22.8764 26.1164 22.9368 25.9759 23.0041C25.6951 23.1385 25.2719 23.3012 24.6493 23.4586C23.4066 23.7726 21.3483 24.0712 17.9998 24.0712C14.6514 24.0712 12.593 23.7726 11.3504 23.4586C10.7278 23.3012 10.3046 23.1385 10.0238 23.0041C9.88319 22.9368 9.77782 22.8764 9.70079 22.8268C9.66226 22.8021 9.63083 22.7801 9.60563 22.7612C9.59505 22.7534 9.58555 22.7461 9.5771 22.7394C8.95837 22.2741 8.62685 21.5032 8.59113 20.7636C8.55443 20.0036 8.82604 19.1606 9.565 18.6135L9.99 19.1876L9.565 18.6135C9.76937 18.4622 9.98333 18.3345 10.1735 18.2244L10.3071 18.1474L10.3071 18.1474C10.45 18.0653 10.5757 17.993 10.6986 17.9144C11.0131 17.7132 11.1767 17.5488 11.2577 17.3584C11.5467 16.6787 11.7547 15.781 11.7547 14.602C11.7547 12.9457 12.4127 11.3573 13.5839 10.1861ZM16.3402 25.1206C16.0624 25.0261 15.7551 25.1111 15.5654 25.3349C15.3756 25.5588 15.3421 25.8759 15.4807 26.1345C15.9614 27.0306 16.9086 27.6426 17.9999 27.6426C19.0911 27.6426 20.0384 27.0306 20.519 26.1345C20.6577 25.8759 20.6241 25.5588 20.4344 25.3349C20.2446 25.1111 19.9373 25.0261 19.6595 25.1206C19.2977 25.2436 18.7632 25.3378 17.9999 25.3378C17.2366 25.3378 16.7021 25.2436 16.3402 25.1206Z" fill="white"/>
</g>
<defs>
<clipPath id="clip0_2174_804">
<rect width="20" height="20" fill="white" transform="translate(8 8)"/>
</clipPath>
</defs>
</svg>
