<svg width="25" height="25" viewBox="0 0 25 25" fill="none" xmlns="http://www.w3.org/2000/svg">
<path d="M8 19.66C8 20.9523 9.00736 22 10.25 22C11.4926 22 12.5 20.9523 12.5 19.66V12.1M12.5 12.1C11.0508 12.1 8.9 13 8.9 13C8.9 13 7.64916 12.1 6.2 12.1C4.75084 12.1 3.5 13 3.5 13C3.5 8.02944 7.52944 4 12.5 4C17.4706 4 21.5 8.02944 21.5 13C21.5 13 20.2492 12.1 18.8 12.1C17.3508 12.1 16.1 13 16.1 13C16.1 13 13.9492 12.1 12.5 12.1Z" stroke="#E2E2E2" stroke-width="2" stroke-linecap="round" stroke-linejoin="round"/>
</svg>
