<svg width="24" height="24" viewBox="0 0 24 24" fill="none" xmlns="http://www.w3.org/2000/svg">
<path d="M22.6601 9.49798L19.9057 7.37928L18.5983 6.37203L13.6523 2.56012C13.1743 2.19638 12.5951 2 12 2C11.405 2 10.8257 2.19638 10.3478 2.56012L6.06603 5.85973L4.13245 7.34715C4.00373 7.44332 3.88595 7.554 3.78128 7.67712L1.32728 9.63083C1.15054 9.77269 1.03543 9.98033 1.00691 10.2087C0.9784 10.4371 1.03879 10.6678 1.17496 10.8508C1.25482 10.9555 1.35695 11.0401 1.47356 11.098C1.59016 11.1559 1.71814 11.1857 1.8477 11.1851C2.03498 11.1864 2.21709 11.1221 2.36388 11.0028L3.03238 10.4688V19.178C3.03305 19.9262 3.32302 20.6436 3.83863 21.1727C4.35424 21.7018 5.05336 21.9993 5.78255 22H8.5835V18.5571C8.5845 17.6282 8.94456 16.7376 9.58467 16.0808C10.2248 15.424 11.0927 15.0545 11.9979 15.0535C12.9038 15.0536 13.7727 15.4226 14.4137 16.0795C15.0546 16.7364 15.4154 17.6275 15.4166 18.5571V22H18.2218C18.9507 21.9985 19.6494 21.7007 20.1648 21.1718C20.6803 20.6429 20.9705 19.926 20.9719 19.178V10.3689L21.6447 10.8855C21.791 10.9986 21.9692 11.0595 22.1524 11.0592C22.2838 11.0592 22.4133 11.0278 22.5308 10.9675C22.6483 10.9073 22.7505 10.8197 22.8294 10.7119C22.8965 10.621 22.9454 10.5174 22.9732 10.407C23.001 10.2966 23.0073 10.1816 22.9915 10.0687C22.9758 9.95581 22.9384 9.84724 22.8815 9.74928C22.8246 9.65132 22.7494 9.56591 22.6601 9.49798V9.49798Z" fill="#2E94F1"/>
</svg>
