<svg width="25" height="25" viewBox="0 0 25 25" fill="none" xmlns="http://www.w3.org/2000/svg">
<path d="M17.8699 9.525L7.13009 15.475M17.8699 9.525L18.8426 6.04164M17.8699 9.525L21.5 10.4584M7.13009 15.475L3.5 14.5416M7.13009 15.475L6.15741 18.9584M17.8698 15.4749L7.13002 9.52488M17.8698 15.4749L21.5 14.5415M17.8698 15.4749L18.8426 18.9583M7.13002 9.52488L6.15754 6.04173M7.13002 9.52488L3.50013 10.4585M12.5 6.55L12.5 18.45M12.5 6.55L9.84258 4M12.5 6.55L15.1574 4M12.5 18.45L9.84258 21M12.5 18.45L15.1574 21" stroke="#E2E2E2" stroke-width="2" stroke-linecap="round" stroke-linejoin="round"/>
</svg>
