<svg width="144" height="122" viewBox="0 0 144 122" fill="none" xmlns="http://www.w3.org/2000/svg">
<g clip-path="url(#clip0_1679_64)">
<g clip-path="url(#clip1_1679_64)">
<path d="M66.2611 85.8461C67.3919 84.1227 80.8116 81.8338 93.8293 83.2712C106.847 84.7085 109.504 97.5083 109.49 107.856C109.477 118.203 111.472 142.57 107.297 146.289C103.121 150.008 67.5486 151.241 63.2162 146.664C58.8837 142.086 57.9301 98.5369 66.2611 85.8461Z" fill="#CF1E26"/>
<path d="M100.636 85.5122C99.6618 86.2479 98.8171 87.2561 98.1495 88.455C96.5759 91.2683 96.0514 94.6335 95.7857 97.9441C95.1726 105.56 94.9002 113.251 94.8116 120.88C94.7639 124.811 94.832 128.741 95.016 132.658C95.125 135.022 95.2748 137.365 95.6427 139.681C95.9969 141.936 96.5555 144.109 97.6318 145.989C98.2517 147.072 99.0487 147.883 99.9683 148.455C103.606 147.897 106.317 147.161 107.298 146.289C111.474 142.57 109.471 118.21 109.491 107.856C109.505 99.6471 107.829 89.9059 100.643 85.5054L100.636 85.5122Z" fill="#EE4C36"/>
<path d="M49.9834 88.7822C49.9834 88.7822 29.4997 105.002 28.4847 111.977C27.4765 118.953 42.9602 139.586 42.9602 139.586L49.9834 88.7822Z" fill="#FFD996"/>
<g style="mix-blend-mode:multiply" opacity="0.5">
<path d="M48.4308 90.0425C48.424 90.1106 48.4172 90.1787 48.4104 90.2468C47.5589 97.2632 44.5071 103.769 41.067 109.865C39.3708 112.876 37.6883 115.935 35.7605 118.81C34.8477 120.172 33.8804 121.493 32.8177 122.74C32.661 122.924 32.5043 123.108 32.3477 123.285C36.646 131.18 42.954 139.586 42.954 139.586L49.9771 88.7822C49.9771 88.7822 49.3913 89.2454 48.424 90.0425H48.4308Z" fill="#FFD996"/>
</g>
<path d="M43.262 118.932C42.8396 118.36 42.3764 117.821 41.8996 117.304C41.7565 117.004 41.5794 116.718 41.4091 116.439C41.1911 116.084 40.9731 115.723 40.7552 115.369C40.3192 114.661 39.9037 113.911 39.3996 113.251C39.3042 113.121 39.1067 113.23 39.1816 113.38C39.5494 114.129 40.0331 114.831 40.4759 115.533C40.6666 115.832 40.8573 116.139 41.0481 116.439C40.6053 116.016 40.1489 115.608 39.6652 115.219C38.3573 114.191 36.8587 113.169 35.2715 112.638C35.1012 112.583 34.999 112.835 35.1557 112.917C35.8778 113.326 36.6203 113.673 37.3287 114.095C38.0712 114.538 38.7797 115.022 39.4609 115.546C40.7892 116.582 41.9949 117.787 43.044 119.102C43.1462 119.232 43.3778 119.054 43.2756 118.918L43.262 118.932Z" fill="#C78E23"/>
<path d="M95.1002 145.322C89.1124 146.173 83.0361 146.739 76.9326 146.957C65.8699 147.352 54.5347 147.257 43.833 145.233C41.5714 144.804 39.3371 144.28 37.1641 143.626C40.4951 117.754 44.8616 94.0412 49.2894 89.0957C49.9298 88.3736 52.8794 87.3314 56.7826 86.3981C56.9325 86.3572 57.096 86.3232 57.2527 86.2823C62.3344 85.097 68.8944 84.1161 74.1192 84.2251C76.0061 84.266 77.7841 84.4226 79.4258 84.6747C79.6301 84.7019 79.8345 84.736 80.032 84.7769C86.34 85.8327 90.577 88.1965 91.3604 89.8246C92.3958 91.9703 93.0021 133.108 94.6029 142.611C94.7119 143.251 94.8822 144.164 95.1002 145.322Z" fill="#FFD996"/>
<path d="M80.0313 84.777C79.0777 85.8192 77.9673 86.7525 76.8774 87.6312C75.6717 88.6121 74.3978 89.5181 73.049 90.2879C70.297 91.8615 67.1839 92.8697 63.9959 92.856C62.4223 92.856 60.8283 92.604 59.3569 92.0386C58.0694 91.5413 56.8705 90.7239 56.489 89.3342C56.2029 88.2647 56.3596 87.2906 56.782 86.3982C56.9318 86.3574 57.0953 86.3233 57.252 86.2824C56.6457 87.5563 56.5503 89.1912 57.4972 90.322C58.376 91.3778 59.8746 91.8206 61.1689 92.0999C62.5585 92.4064 64.0027 92.4677 65.4196 92.3315C68.2534 92.0658 70.9509 91.0168 73.3692 89.5386C74.5817 88.8029 75.7262 87.9582 76.8161 87.0522C77.7153 86.3029 78.6213 85.5195 79.4251 84.6748C79.6294 84.7021 79.8338 84.7361 80.0313 84.777Z" fill="#C78E23"/>
<path d="M57.0303 81.9565L59.1215 89.5519C59.1215 89.5519 60.77 92.2086 68.781 90.0696C76.4104 88.0328 75.6815 84.3475 75.6815 84.3475L73.8832 78.3257L57.0234 81.9565H57.0303Z" fill="#FFA672"/>
<mask id="mask0_1679_64" style="mask-type:luminance" maskUnits="userSpaceOnUse" x="57" y="78" width="19" height="13">
<path d="M57.0224 81.9565L59.1137 89.5519C59.1137 89.5519 60.7622 92.2086 68.7731 90.0696C76.4026 88.0328 75.6737 84.3475 75.6737 84.3475L73.8753 78.3257L57.0156 81.9565H57.0224Z" fill="white"/>
</mask>
<g mask="url(#mask0_1679_64)">
<path d="M58.2652 87.7942C60.0976 87.9713 61.9982 87.6852 63.8238 87.256C66.0513 86.7383 68.2584 86.0026 70.1385 84.8241C72.0186 83.6457 73.5377 81.9767 74.035 80.1034C74.2053 79.4699 74.2393 78.7615 73.7965 78.2574C73.3946 77.801 72.6794 77.6102 71.9846 77.5217C70.6903 77.3582 69.3483 77.4604 68.0336 77.6375C64.0418 78.1756 60.1793 79.395 56.4055 80.7437C55.4859 81.0707 54.5049 81.459 54.0145 82.1879C53.4014 83.1007 53.2379 85.0149 53.851 85.9209C54.6412 87.0857 56.7461 87.6511 58.272 87.801L58.2652 87.7942Z" fill="#B22E2E"/>
</g>
<path d="M91.3711 89.8242C95.3221 94.6335 106.412 122.57 110.009 152.59C110.295 154.967 99.5183 156.187 95.1109 156.085C95.1109 156.085 92.8289 143.189 89.6749 127.767C86.5278 112.345 82.1817 108.087 82.1953 100.996C82.209 93.9114 86.7049 84.1566 91.3711 89.8242Z" fill="#FFD996"/>
<path d="M93.0955 145.185C92.3598 142.004 91.6855 138.809 91.0179 135.615C90.3367 132.427 89.7508 129.204 89.0424 126.03C88.3544 122.849 87.4893 119.702 86.4879 116.602C85.507 113.496 84.2672 110.465 83.3203 107.338C83.8857 108.871 84.5056 110.376 85.1255 111.888C85.7318 113.407 86.3176 114.933 86.8626 116.473C87.9457 119.559 88.8108 122.726 89.5465 125.914C89.8939 127.515 90.1936 129.123 90.5002 130.724C90.8067 132.331 91.1269 133.932 91.4062 135.54C91.9988 138.755 92.5778 141.963 93.1024 145.192L93.0955 145.185Z" fill="#C78E23"/>
<path d="M79.1317 84.2178C78.9818 84.2041 78.8388 84.2791 78.757 84.4085C74.3701 91.4044 73.5731 100.539 75.2897 108.625C77.054 116.956 82.2788 124.456 89.4315 128.898C90.283 129.429 91.4614 129.232 91.9451 128.339C92.5173 127.283 91.8361 125.934 91.1072 124.947C89.1385 122.276 83.9955 115.165 82.238 106.336C80.4805 97.508 83.5254 90.4031 85.6304 86.2954C85.753 86.057 85.7257 85.7845 85.4873 85.6755C83.9069 84.9671 80.8006 84.3812 79.1317 84.2109V84.2178Z" fill="black"/>
<path d="M53.1059 86.9291C50.5242 87.9713 48.2626 89.579 46.7572 91.9768C37.1658 107.263 39.0664 122.508 39.5569 123.121C40.1699 123.884 40.5174 121.95 40.5855 121.629C43.6441 106.786 48.0242 98.7002 50.5923 94.6948C51.7435 92.9032 53.0446 91.207 54.4956 89.6471C55.2313 88.8569 56.0147 88.1076 56.7776 87.3446C57.016 87.1062 57.7041 86.6021 57.7041 86.2138C57.7041 85.3964 54.2776 86.4999 53.8757 86.643C53.61 86.7315 53.3512 86.8269 53.0991 86.9291H53.1059Z" fill="black"/>
<path d="M44.688 21.2208C38.7888 25.7371 36.0844 34.0546 38.1893 41.2004C38.5436 42.3993 39.034 43.5846 39.8651 44.5178C40.6962 45.4511 41.9087 46.0982 43.1485 45.996C45.3828 45.8189 46.7384 43.496 47.6921 41.4592C49.3202 37.9647 50.9278 34.4156 51.7861 30.6486C52.4264 27.8625 53.2507 23.1077 51.7112 20.4646C50.2602 17.9646 46.3569 19.9401 44.688 21.2208Z" fill="black"/>
<path d="M36.368 53.2369C36.3408 55.7982 36.4293 58.2778 36.6746 60.628C36.6746 60.6688 36.6746 60.7097 36.6882 60.7506C36.7563 61.4795 36.8585 62.1947 36.9675 62.9032C37.8939 68.9795 40.0193 74.1294 44.0588 77.7806C44.0792 77.801 44.1065 77.8215 44.1269 77.8487C44.8354 78.4822 45.6051 79.0749 46.4362 79.6198C49.9307 81.8814 54.5493 83.3051 60.6324 83.6253C60.9049 83.6389 61.1842 83.6525 61.4635 83.6594C61.77 83.673 62.0834 83.6798 62.4035 83.6866C63.112 83.7002 63.7932 83.6866 64.4948 83.6321C73.1256 83.0531 80.8572 77.7942 85.5371 69.8174C85.5712 69.7424 85.612 69.6743 85.6529 69.6062C86.0344 68.9522 86.3886 68.2778 86.7224 67.5898C88.4458 64.0748 89.6175 60.083 90.0807 55.7506C92.0153 37.8486 80.939 21.2886 64.958 20.2736C48.7114 19.2382 36.5996 32.1878 36.368 53.2437V53.2369Z" fill="#FFA672"/>
<path d="M40.0181 22.5421C40.2565 23.9727 40.8696 25.2193 41.9731 26.1184C48.029 31.0912 55.5835 25.9754 55.5835 25.9754C55.5835 25.9754 57.7906 29.9945 63.9759 31.6498C70.1748 33.3187 75.8015 30.4032 75.8015 30.4032C75.8015 30.4032 73.7375 35.7983 76.9051 41.8951C80.0591 47.9782 83.3697 49.9128 83.3697 49.9128C83.3697 49.9128 81.5713 53.3733 84.4596 55.3079C87.7021 57.4809 97.3888 55.7302 99.4596 48.3869C100.352 45.2329 101.183 40.3692 100.788 35.3555C100.434 31.1661 99.2349 26.8746 96.4419 23.4141C94.8275 21.3841 92.6613 19.647 89.8343 18.3664C86.7076 16.9495 83.07 16.0367 79.3506 15.4508C76.6054 15.0285 73.8193 14.7764 71.1285 14.6675C61.7348 14.2315 53.6557 15.3146 53.6557 15.3146C53.6557 15.3146 58.0426 9.44265 55.7061 8.06662C55.6653 8.02575 55.6244 8.01212 55.5767 7.98488C53.0699 6.79278 48.7715 12.004 48.4445 12.3854C48.5467 12.147 49.262 10.3691 49.4186 8.76826C49.5481 7.41948 49.262 6.17288 47.8791 6.05027C47.7769 6.03664 47.668 6.05027 47.5522 6.07751C44.8069 6.62248 38.9622 16.3228 40.0113 22.5353L40.0181 22.5421Z" fill="black"/>
<g style="mix-blend-mode:screen" opacity="0.7">
<path d="M70.9832 16.3432C71.4328 18.1211 73.5036 19.034 75.3837 19.4972C75.7107 19.5789 76.0377 19.6675 76.2897 19.865C76.7598 20.2329 76.787 20.9277 76.6576 21.4931C76.5282 22.0653 76.2761 22.6171 76.3442 23.2029C76.4873 24.4086 77.945 25.1239 79.2461 25.1511C80.5472 25.1648 81.8075 24.7288 83.1085 24.6334C84.4096 24.5381 85.9219 24.9672 86.4056 26.0912C86.9437 27.3378 85.9968 28.9114 86.7734 30.0558C87.3661 30.9413 88.7557 31.064 89.8184 30.6893C90.8674 30.3078 91.7257 29.5789 92.693 29.034C93.129 28.7819 93.6399 28.5708 94.1372 28.6525C95.0159 28.8092 95.411 29.7629 95.6495 30.5735C96.0037 31.7656 96.3579 32.9713 96.7121 34.1634C97.0391 35.2397 97.5909 36.5204 98.7625 36.6566C99.5119 36.752 100.248 36.2888 100.629 35.6893C100.697 35.5803 100.758 35.4781 100.799 35.3555C100.445 31.1661 99.2462 26.8746 96.4533 23.4141C96.0037 23.4549 95.5473 23.5435 95.1249 23.6661C93.129 24.2111 91.8279 24.1838 90.5268 22.474C89.9342 21.6906 89.4369 20.8051 88.6331 20.192C86.4396 18.5639 82.802 19.5449 80.8197 17.6852C80.1521 17.0789 79.7979 16.2274 79.3619 15.444C76.6167 15.0217 73.8306 14.7696 71.1399 14.6606C70.9151 15.192 70.8401 15.7574 70.9832 16.3296V16.3432Z" fill="#611B20"/>
</g>
<path d="M97.0002 49.4565C98.3013 49.695 99.5002 50.383 100.44 51.6977C101.483 53.1418 101.837 54.9402 101.823 56.6705C101.789 60.4307 100.045 64.041 97.1842 66.5751C95.413 68.1419 93.1242 69.5451 90.6991 69.7631C87.9743 70.0084 85.7672 68.3122 85.161 65.7032C84.8544 64.3816 84.9362 62.9988 85.1269 61.6568C85.9648 55.9688 89.9498 48.1486 97.007 49.4497L97.0002 49.4565Z" fill="#FFA672"/>
<path d="M96.1314 54.7424C94.8507 54.7151 93.7267 55.5326 92.9161 56.4522C91.0496 58.5843 90.2458 61.3228 90.5455 64.1293C90.5864 64.538 91.2199 64.5517 91.1927 64.1293C91.0564 61.9018 91.8058 59.5789 93.1477 57.801C93.4474 57.4059 93.788 57.0039 94.1831 56.6633C94.5714 57.1266 94.8439 57.6647 94.9665 58.2574C95.0346 58.5911 95.0551 58.8977 95.0346 59.2655C95.0346 59.3541 95.021 59.4426 95.0142 59.538C95.021 59.4767 95.0006 59.6266 95.0006 59.6266C94.9938 59.6743 94.9802 59.7151 94.9733 59.756C94.9257 59.9672 94.8712 60.1511 94.878 60.3759C94.8916 60.7097 95.2935 60.9004 95.5524 60.662C95.8998 60.3282 95.9679 59.7901 96.0156 59.3268C96.0564 58.8909 96.0156 58.4345 95.8998 58.0189C95.7158 57.3241 95.3616 56.6974 94.8575 56.2001C95.0687 56.0843 95.2935 55.9821 95.5251 55.9208C95.9475 55.805 96.4107 55.8255 96.8126 56.0026C97.2281 56.1933 97.4325 56.602 97.8139 56.8132C98.0319 56.9358 98.3793 56.8473 98.4338 56.568C98.6586 55.4031 97.051 54.7696 96.1382 54.7424H96.1314Z" fill="#C4311D"/>
<path d="M60.3332 62.2834C58.3237 61.575 56.8046 62.9237 53.2691 63.1962C49.7337 63.4687 47.4244 62.6444 46.9953 63.3461C46.0007 64.9605 49.4544 68.7889 54.4544 68.7889C59.4544 68.7889 62.3359 62.9919 60.3332 62.2834Z" fill="white"/>
<g opacity="0.2">
<path d="M60.1735 81.4184C60.4937 82.2222 60.9365 82.9784 61.4746 83.6459C61.7812 83.6596 62.0945 83.6664 62.4147 83.6732C63.1231 83.6868 63.8043 83.6732 64.506 83.6187C73.1368 83.0397 80.8684 77.7808 85.5483 69.8039C85.5823 69.729 85.6232 69.6609 85.6641 69.5928C86.0456 68.9388 86.3998 68.2644 86.7336 67.5764C86.284 66.7113 85.705 65.9279 85.0033 65.2603C82.6804 63.0328 79.3085 62.0996 76.1 62.3448C72.8916 62.59 69.833 63.9184 67.1695 65.7099C64.5945 67.4334 62.2716 69.6541 60.8684 72.4197C59.4651 75.1718 59.0496 78.5369 60.1872 81.4116L60.1735 81.4184Z" fill="#EC372F"/>
<path d="M36.6836 60.6279C36.6836 60.6688 36.6836 60.7097 36.6972 60.7505C36.7653 61.4794 36.8675 62.1947 36.9765 62.9031C37.9029 68.9794 40.0283 74.1293 44.0678 77.7806C44.0882 77.801 44.1155 77.8214 44.1359 77.8487C43.843 74.8855 43.407 71.9427 42.467 69.1293C41.3566 65.8323 39.4629 62.6988 36.6904 60.6347L36.6836 60.6279Z" fill="#EC372F"/>
</g>
<path d="M60.6042 54.0815C60.5497 55.6824 61.3467 57.0107 62.3889 57.0448C63.4312 57.0788 64.3167 55.8118 64.3712 54.211C64.4257 52.6101 63.6287 51.2818 62.5865 51.2477C61.5443 51.2137 60.6587 52.4807 60.6042 54.0815Z" fill="black"/>
<path d="M43.1236 53.1758C43.0759 54.5177 43.7095 55.6281 44.5405 55.6553C45.3716 55.6826 46.08 54.6199 46.1277 53.2779C46.1754 51.936 45.5419 50.8256 44.7108 50.7984C43.8798 50.7711 43.1713 51.8338 43.1236 53.1758Z" fill="black"/>
<path d="M65.3939 42.965C64.0451 40.9418 62.165 38.8914 59.9715 38.1625C59.1813 37.8969 58.2889 37.8901 57.6418 38.4827C57.0968 38.98 56.9061 39.7702 57.0423 40.4854C57.3625 42.168 58.9974 42.7947 60.4347 43.3124C61.3611 43.6462 62.2399 44.0481 63.1255 44.4841C63.6295 44.7293 66.6609 46.8138 66.5383 45.0972C66.5178 44.8519 66.402 44.6271 66.2794 44.4091C66.0206 43.9391 65.7208 43.4555 65.3939 42.965Z" fill="black"/>
<path d="M41.4217 41.7387C41.3331 41.909 41.2514 42.0861 41.2582 42.2973C41.3195 43.7483 43.8945 42.3246 44.3372 42.1747C45.1002 41.909 45.8768 41.6706 46.6942 41.4935C47.9612 41.221 49.3986 40.8736 49.5212 39.4771C49.5689 38.8845 49.3168 38.1829 48.7582 37.6924C48.0975 37.1066 47.28 37.0112 46.5784 37.1406C44.637 37.5085 43.1179 39.0412 42.0893 40.6079C41.8372 40.9894 41.6192 41.3709 41.4285 41.7387H41.4217Z" fill="black"/>
<path d="M51.0984 55.8322C51.0643 55.1782 50.9622 54.5243 50.7919 53.8908C50.6216 53.2573 50.3831 52.6442 50.0902 52.0583C49.9404 51.7654 49.7769 51.4929 49.5861 51.2273C49.3818 50.9548 49.1842 50.5801 48.8572 50.4439C48.5439 50.3077 48.2442 50.5256 48.3055 50.8731C48.36 51.2137 48.6461 51.5202 48.8164 51.8267C48.9731 52.1128 49.1365 52.3989 49.2796 52.6987C49.5657 53.2981 49.7701 53.9316 49.9063 54.572C50.0562 55.26 50.1243 55.9752 50.0834 56.6769C50.0698 56.963 50.0493 57.2763 49.7019 57.29C49.3613 57.3104 49.0344 57.0652 48.7414 56.9221C47.6515 56.4112 46.3164 56.6769 45.6624 57.7532C45.0493 58.7614 45.4376 60.0488 46.3981 60.6619C46.6365 60.8118 46.9022 60.4644 46.6978 60.2736C45.8055 59.4221 46.1529 57.7872 47.4676 57.6442C48.1079 57.5761 48.5984 58.0529 49.1842 58.2232C49.7837 58.3935 50.4785 58.2709 50.8259 57.7123C51.1597 57.181 51.1188 56.4385 51.0916 55.8322H51.0984Z" fill="#C4311D"/>
</g>
</g>
<defs>
<clipPath id="clip0_1679_64">
<rect width="144" height="122" fill="white"/>
</clipPath>
<clipPath id="clip1_1679_64">
<rect width="95.4567" height="217.95" fill="white" transform="translate(24 6.0498)"/>
</clipPath>
</defs>
</svg>
