<svg width="25" height="25" viewBox="0 0 25 25" fill="none" xmlns="http://www.w3.org/2000/svg">
<path d="M19.868 12.9048C21.435 12.0606 22.5 10.4047 22.5 8.5C22.5 5.73858 20.2614 3.5 17.5 3.5C14.7386 3.5 12.5 5.73858 12.5 8.5M12.5 8.5C10.3623 8.5 8.5094 9.7196 7.59922 11.501C7.56622 11.5003 7.53315 11.5 7.5 11.5C4.73858 11.5 2.5 13.7386 2.5 16.5C2.5 19.2614 4.73858 21.5 7.5 21.5C11.7352 21.5 14.2434 21.5 18 21.5C20.4853 21.5 22.5 19.4853 22.5 17C22.5 14.5147 20.4853 12.5 18 12.5C17.9311 12.5 17.8625 12.5016 17.7943 12.5046C17.1429 10.1938 15.0192 8.5 12.5 8.5Z" stroke="#E2E2E2" stroke-width="2" stroke-linecap="round" stroke-linejoin="round"/>
</svg>
