<svg width="144" height="122" viewBox="0 0 144 122" fill="none" xmlns="http://www.w3.org/2000/svg">
<g clip-path="url(#clip0_1962_1118)">
<path d="M106.858 104.948C91.2751 100.355 80.285 92.1533 70.115 88.4626C59.945 92.1533 48.9549 100.355 33.3719 104.948C8.60306 112.329 2.45187 79.1948 20.0853 67.7126C35.5863 57.6246 33.6999 55.9023 37.8007 38.5149C38.0468 37.3667 38.3748 36.2184 38.7029 34.9062C39.031 33.5119 39.441 32.0356 39.8511 30.4773C40.0972 29.5752 40.3432 28.673 40.6713 27.8528C44.9361 14.8123 57.0745 6.52869 70.115 7.02079C83.1555 6.52869 95.2939 14.8123 99.5587 27.8528C99.8048 28.673 100.133 29.5752 100.379 30.4773C100.789 32.0356 101.199 33.5119 101.527 34.9062C101.855 36.1364 102.101 37.3667 102.429 38.5149C106.53 55.9023 104.644 57.6246 120.227 67.7946C137.778 79.2768 131.545 112.329 106.858 104.948Z" fill="black"/>
<path d="M134.004 122.179H11.7188C11.7188 122.179 13.3591 114.387 15.7375 106.596C18.116 98.8043 22.8729 95.5237 29.1881 93.8833C30.9925 93.3913 34.1911 92.4891 37.8818 91.4229C40.0142 90.7667 42.2287 90.1106 44.5251 89.4545C52.3986 87.076 60.1081 84.6976 60.1081 84.6976L72.8206 83.7134H72.9026H72.9846L84.4669 84.6156C84.4669 84.6156 91.3562 86.666 98.9017 88.8804C105.955 90.9308 113.583 93.2272 116.617 93.9654C122.85 95.6057 127.689 98.8043 130.068 106.678C132.364 114.387 134.004 122.179 134.004 122.179Z" fill="#86AFFE"/>
<path d="M25.1635 105.61C24.9995 105.61 24.9174 105.528 24.7534 105.446L21.5548 102.904C21.3087 102.658 21.2267 102.33 21.4728 102.002C21.7188 101.756 22.0469 101.674 22.375 101.92L25.5736 104.462C25.8196 104.708 25.9016 105.036 25.6556 105.364C25.5736 105.528 25.3275 105.61 25.1635 105.61Z" fill="#86AFFE"/>
<path d="M25.1635 119.306C24.9995 119.306 24.9174 119.224 24.7534 119.142L21.5548 116.599C21.3087 116.353 21.2267 116.025 21.4728 115.697C21.7188 115.451 22.0469 115.369 22.375 115.615L25.5736 118.157C25.8196 118.403 25.9016 118.731 25.6556 119.06C25.5736 119.224 25.3275 119.306 25.1635 119.306Z" fill="#86AFFE"/>
<path d="M44.1053 100.617C44.0233 100.617 43.8593 100.617 43.7773 100.535C43.4492 100.371 43.3672 99.9611 43.5312 99.6331L45.6636 96.1064C45.8277 95.7783 46.2378 95.6963 46.5658 95.8603C46.8939 96.0244 46.9759 96.4344 46.8119 96.7625L44.6795 100.289C44.5154 100.535 44.2694 100.617 44.1053 100.617Z" fill="#86AFFE"/>
<path d="M33.6835 114.207C33.6015 114.207 33.4374 114.207 33.3554 114.125C33.0273 113.961 32.9453 113.55 33.1094 113.222L35.2418 109.696C35.4058 109.368 35.8159 109.286 36.1439 109.45C36.472 109.614 36.554 110.024 36.39 110.352L34.2576 113.879C34.0936 114.125 33.9295 114.207 33.6835 114.207Z" fill="#86AFFE"/>
<path d="M38.3704 97.083C38.3704 97.1651 38.4524 97.3291 38.3704 97.4111C38.2884 97.7392 37.9603 97.9852 37.6322 97.9032L33.6135 97.083C33.2854 97.001 33.0393 96.673 33.1214 96.3449C33.2034 96.0168 33.5314 95.7708 33.8595 95.8528L37.8783 96.673C38.1243 96.673 38.2884 96.837 38.3704 97.083Z" fill="#86AFFE"/>
<path d="M52.2221 112.405C52.0581 112.405 51.976 112.323 51.812 112.241L48.6134 109.699C48.3673 109.453 48.2853 109.125 48.5314 108.796C48.7774 108.55 49.1055 108.468 49.4336 108.714L52.6322 111.257C52.8782 111.503 52.9602 111.831 52.7142 112.159C52.5502 112.323 52.3861 112.405 52.2221 112.405Z" fill="#86AFFE"/>
<path d="M40.6562 119.225C40.5742 119.143 40.4922 119.061 40.4101 118.979C40.2461 118.651 40.3281 118.323 40.6562 118.159L44.1829 116.108C44.5109 115.944 44.839 116.026 45.003 116.354C45.1671 116.683 45.085 117.011 44.757 117.175L41.2303 119.225C41.0663 119.307 40.8202 119.307 40.6562 119.225Z" fill="#86AFFE"/>
<path d="M96.7651 105.609C96.601 105.609 96.519 105.527 96.355 105.445L93.1564 102.902C92.9103 102.656 92.8283 102.328 93.0743 102C93.3204 101.754 93.6485 101.672 93.9765 101.918L97.1751 104.461C97.4212 104.707 97.5032 105.035 97.2572 105.363C97.1751 105.527 96.9291 105.609 96.7651 105.609Z" fill="#86AFFE"/>
<path d="M96.7651 119.306C96.601 119.306 96.519 119.224 96.355 119.142L93.1564 116.6C92.9103 116.354 92.8283 116.025 93.0743 115.697C93.3204 115.451 93.6485 115.369 93.9765 115.615L97.1751 118.158C97.4212 118.404 97.5032 118.732 97.2572 119.06C97.1751 119.224 96.9291 119.306 96.7651 119.306Z" fill="#86AFFE"/>
<path d="M115.711 100.617C115.629 100.617 115.465 100.617 115.383 100.535C115.055 100.371 114.973 99.9611 115.137 99.6331L117.269 96.1064C117.433 95.7783 117.843 95.6963 118.171 95.8603C118.499 96.0244 118.581 96.4344 118.335 96.7625L116.203 100.289C116.121 100.535 115.875 100.617 115.711 100.617Z" fill="#86AFFE"/>
<path d="M105.293 114.207C105.211 114.207 105.047 114.207 104.965 114.125C104.637 113.961 104.555 113.55 104.719 113.222L106.851 109.696C107.015 109.368 107.425 109.286 107.753 109.45C108.081 109.614 108.163 110.024 107.999 110.352L105.867 113.879C105.703 114.125 105.539 114.207 105.293 114.207Z" fill="#86AFFE"/>
<path d="M127.441 120.05C127.359 120.05 127.195 120.05 127.113 119.968C126.785 119.804 126.703 119.394 126.867 119.066L129 115.539C129.164 115.211 129.574 115.129 129.902 115.293C130.23 115.457 130.312 115.867 130.148 116.195L128.015 119.722C127.851 119.886 127.605 120.05 127.441 120.05Z" fill="#86AFFE"/>
<path d="M109.972 97.083C109.972 97.1651 110.054 97.3291 109.972 97.4111C109.89 97.7392 109.562 97.9852 109.234 97.9032L105.215 97.083C104.887 97.001 104.641 96.673 104.723 96.3449C104.805 96.0168 105.133 95.7708 105.461 95.8528L109.48 96.673C109.726 96.673 109.89 96.837 109.972 97.083Z" fill="#86AFFE"/>
<path d="M123.82 109.794C123.656 109.794 123.574 109.712 123.41 109.63L120.211 107.087C119.965 106.841 119.883 106.513 120.129 106.185C120.375 105.939 120.703 105.857 121.031 106.103L124.23 108.646C124.476 108.892 124.558 109.22 124.312 109.548C124.23 109.712 123.984 109.794 123.82 109.794Z" fill="#86AFFE"/>
<path d="M112.269 119.225C112.187 119.143 112.105 119.061 112.023 118.979C111.859 118.651 111.941 118.323 112.269 118.159L115.796 116.108C116.124 115.944 116.452 116.026 116.616 116.354C116.78 116.683 116.698 117.011 116.37 117.175L112.844 119.225C112.68 119.307 112.434 119.307 112.269 119.225Z" fill="#86AFFE"/>
<path d="M72.8163 107.989C72.7343 107.989 72.5702 107.989 72.4882 107.907C72.1602 107.743 72.0781 107.333 72.2422 107.005L74.3746 103.478C74.5386 103.15 74.9487 103.068 75.2768 103.232C75.6048 103.396 75.6868 103.806 75.4408 104.134L73.3084 107.661C73.2264 107.907 73.0623 107.989 72.8163 107.989Z" fill="#86AFFE"/>
<path d="M62.8085 118.978C62.7265 118.978 62.5624 118.978 62.4804 118.896C62.1523 118.732 62.0703 118.322 62.2344 117.994L64.3668 114.467C64.5308 114.139 64.9409 114.057 65.2689 114.221C65.597 114.385 65.679 114.795 65.515 115.123L63.3826 118.65C63.2185 118.896 63.0545 118.978 62.8085 118.978Z" fill="#86AFFE"/>
<path d="M63.6321 105.764C63.6321 105.846 63.7141 106.01 63.6321 106.092C63.5501 106.42 63.222 106.666 62.894 106.584L58.8752 105.764C58.5471 105.682 58.3011 105.354 58.3831 105.026C58.4651 104.698 58.7932 104.452 59.1212 104.534L63.14 105.354C63.3861 105.436 63.5501 105.6 63.6321 105.764Z" fill="#86AFFE"/>
<path d="M87.2494 109.379C87.0854 109.379 87.0034 109.297 86.8394 109.215L83.6407 106.672C83.3947 106.426 83.3127 106.098 83.5587 105.77C83.8048 105.524 84.1328 105.442 84.4609 105.688L87.6595 108.231C87.9056 108.477 87.9876 108.805 87.7415 109.133C87.5775 109.297 87.4135 109.379 87.2494 109.379Z" fill="#86AFFE"/>
<path d="M74.9531 119.391C74.871 119.308 74.789 119.226 74.707 119.144C74.543 118.816 74.625 118.488 74.9531 118.324L78.4797 116.274C78.8078 116.11 79.1359 116.192 79.2999 116.52C79.4639 116.848 79.3819 117.176 79.0539 117.34L75.5272 119.391C75.3631 119.473 75.1171 119.473 74.9531 119.391Z" fill="#86AFFE"/>
<path d="M72.9017 83.6209H72.8203V83.5396L72.9017 83.6209Z" fill="#5D46C2"/>
<path d="M84.2181 87.6442C84.2181 87.6442 81.0195 93.5494 72.2438 93.5494C63.7142 93.5494 60.1055 87.3162 60.1055 87.3162L60.5976 83.0513L60.6796 82.3132L61.4997 75.5879L82.6598 76.162L82.9879 78.7045L83.0699 79.5246L84.2181 87.6442Z" fill="#FFA672"/>
<path d="M92.5017 96.7467C87.2527 103.554 75.8525 99.8634 72.1618 94.9424C68.471 99.8634 57.0708 103.554 51.7398 96.7467C46.6548 90.1855 60.4335 84.5264 60.4335 84.5264C61.8277 90.8416 69.5372 92.892 72.1618 93.3841C74.7863 92.892 82.4137 90.8416 83.808 84.5264C83.808 84.6084 97.5867 90.2675 92.5017 96.7467Z" fill="#F5EFFF"/>
<path d="M82.9919 78.7865C78.235 82.8053 70.4435 84.3636 60.6016 83.0513L60.6836 82.3132L61.5037 75.5879L82.6638 76.162L82.9919 78.7865Z" fill="#B22E2E"/>
<path d="M53.5511 58.1994C48.7942 64.7607 38.6242 60.3319 39.3623 51.5562C40.0185 43.6006 48.8762 44.8309 48.8762 44.8309L53.5511 58.1994Z" fill="#FFA672"/>
<path d="M48.6278 61.6386C48.6278 63.2789 47.3155 64.5912 45.6752 64.5912C44.0349 64.5912 42.7227 63.2789 42.7227 61.6386C42.7227 59.9983 44.0349 58.686 45.6752 58.686C47.3155 58.686 48.6278 59.9983 48.6278 61.6386Z" fill="#CFE7FC"/>
<path d="M49.2031 58.3588C48.9571 58.3588 48.629 58.1947 48.629 57.8667C47.7269 54.0939 43.7901 50.5673 43.7901 50.5673C43.544 50.3212 43.544 49.9111 43.7081 49.6651C43.9541 49.419 44.3642 49.419 44.6102 49.5831C44.7743 49.7471 48.8751 53.3558 49.8593 57.5386C49.9413 57.8667 49.6952 58.1947 49.3672 58.2768C49.2852 58.3588 49.2852 58.3588 49.2031 58.3588Z" fill="#C4311D"/>
<path d="M47.562 54.7498C47.48 54.7498 47.3979 54.7498 47.3979 54.7498C45.6756 54.1757 44.0353 54.5038 44.0353 54.5038C43.7072 54.5858 43.3792 54.3397 43.2971 54.0117C43.2151 53.6836 43.4612 53.3556 43.7892 53.2735C43.8713 53.2735 45.7576 52.8635 47.89 53.5196C48.2181 53.6016 48.3821 54.0117 48.3001 54.3397C48.0541 54.5858 47.808 54.7498 47.562 54.7498Z" fill="#C4311D"/>
<path d="M88.5664 58.1994C93.3233 64.7607 103.493 60.3319 102.755 51.5562C102.099 43.6006 93.2413 44.8309 93.2413 44.8309L88.5664 58.1994Z" fill="#FFA672"/>
<path d="M99.6434 61.6386C99.6434 63.2789 98.3312 64.5912 96.6909 64.5912C95.0505 64.5912 93.7383 63.2789 93.7383 61.6386C93.7383 59.9983 95.0505 58.686 96.6909 58.686C98.3312 58.686 99.6434 59.9983 99.6434 61.6386Z" fill="#CFE7FC"/>
<path d="M92.9181 58.3637C92.8361 58.3637 92.8361 58.3637 92.7541 58.3637C92.426 58.2817 92.18 57.9536 92.262 57.6256C93.2462 53.4428 97.347 49.834 97.511 49.67C97.7571 49.424 98.1671 49.424 98.4132 49.752C98.6592 49.9981 98.6592 50.4082 98.3312 50.6542C98.3312 50.6542 94.3944 54.1809 93.4922 57.9536C93.4922 58.1997 93.1642 58.3637 92.9181 58.3637Z" fill="#C4311D"/>
<path d="M94.5559 54.7498C94.3099 54.7498 94.0639 54.5858 93.9818 54.3397C93.8998 54.0117 94.0639 53.6836 94.3919 53.5196C96.4423 52.8635 98.4107 53.2735 98.4927 53.2735C98.8208 53.3556 99.0668 53.6836 98.9848 54.0117C98.9028 54.3397 98.5747 54.5858 98.2467 54.5038C98.2467 54.5038 96.6063 54.1757 94.884 54.7498C94.72 54.7498 94.638 54.7498 94.5559 54.7498Z" fill="#C4311D"/>
<path d="M46.9875 35.2331C46.9875 35.2331 44.691 49.5859 50.6782 63.5286C56.0912 76.2411 63.3086 80.1778 71.0181 80.3418C79.7118 80.5059 98.0014 75.4209 95.1308 34.0029C93.1624 5.95341 49.2839 6.9376 46.9875 35.2331Z" fill="#FFA672"/>
<path d="M45.6797 41.5473C45.6797 41.5473 46.1718 50.405 49.7805 50.0769C53.4712 49.7489 51.6669 29.737 51.6669 29.737C51.6669 29.737 54.9475 34.5759 60.9347 34.0838C66.9218 33.5917 61.5088 25.8002 61.5088 25.8002C61.5088 25.8002 67.0038 33.5097 72.0888 33.1817C77.1738 32.8536 72.0888 23.4218 72.0888 23.4218C72.0888 23.4218 78.6501 34.1659 83.407 33.8378C88.1639 33.5097 84.1452 24.57 84.1452 24.57C84.1452 24.57 87.9179 34.4939 91.5266 35.2321C91.5266 35.2321 90.6244 49.8309 94.4792 49.1748C98.3339 48.6007 96.9396 32.2795 95.2993 27.3585C93.741 22.4376 85.2114 9.97117 68.8902 11.6115C52.569 13.0878 46.0078 22.1095 45.6797 41.5473Z" fill="black"/>
<path d="M55.1094 42.4467C55.1094 42.4467 58.472 37.7718 64.2131 37.1976C65.1153 37.1156 66.0175 37.8538 66.0175 38.756C66.0995 39.7401 65.3614 40.4783 64.3772 40.5603C62.2448 40.6423 58.472 40.8884 55.1094 42.4467Z" fill="black"/>
<path d="M87.4261 42.4467C87.4261 42.4467 84.0634 37.7718 78.3223 37.1976C77.4201 37.1156 76.5179 37.8538 76.5179 38.756C76.4359 39.7401 77.1741 40.4783 78.1583 40.5603C80.3727 40.6423 84.1454 40.8884 87.4261 42.4467Z" fill="black"/>
<path d="M72.0029 72.8794C70.1985 72.8794 68.8042 72.2233 68.7222 72.2233C68.4762 72.1413 68.3122 71.8132 68.4762 71.5672C68.5582 71.3211 68.8863 71.1571 69.1323 71.3211C69.2143 71.3211 72.4129 72.7154 75.0375 71.0751C75.2835 70.9111 75.6116 70.9931 75.7756 71.2391C75.9396 71.4852 75.8576 71.8132 75.6116 71.9773C74.4633 72.6334 73.1511 72.8794 72.0029 72.8794Z" fill="#FB9065"/>
<path d="M73.8859 59.5076L70.0312 59.1796C69.7031 59.1796 69.5391 58.9335 69.5391 58.6055C69.5391 58.2774 69.7851 58.1134 70.1132 58.1134L73.3118 58.3594L72.3276 48.5995C72.3276 48.2714 72.4916 48.0254 72.8197 48.0254C73.1478 48.0254 73.3938 48.1894 73.3938 48.5175L74.46 58.9335C74.46 59.0975 74.46 59.2616 74.296 59.3436C74.214 59.4256 74.0499 59.5076 73.8859 59.5076Z" fill="#FB9065"/>
<path d="M64.7911 66.3131C64.1294 65.1065 65.221 63.9155 66.5889 64.0665C69.7978 64.4205 73.1551 64.4871 77.1683 63.9035C78.4871 63.7117 79.6163 64.785 79.0482 65.9904C78.1232 67.9531 76.0769 70.3347 71.5923 70.3347C67.8304 70.3817 65.821 68.191 64.7911 66.3131Z" fill="#F5EFFF"/>
<path d="M63.3899 48.6018C63.3899 50.4061 62.5698 51.8824 61.5036 51.8824C60.5194 51.8824 59.6172 50.4061 59.6172 48.6018C59.6172 46.7974 60.4373 45.3211 61.5036 45.3211C62.5698 45.2391 63.3899 46.7154 63.3899 48.6018Z" fill="black"/>
<path d="M81.2653 51.8816C82.3071 51.8816 83.1516 50.4128 83.1516 48.6009C83.1516 46.7891 82.3071 45.3203 81.2653 45.3203C80.2235 45.3203 79.3789 46.7891 79.3789 48.6009C79.3789 50.4128 80.2235 51.8816 81.2653 51.8816Z" fill="black"/>
<path d="M56.6678 55.3324C56.6678 55.6605 56.4217 55.9065 56.0936 55.9065C55.7656 55.9065 55.5195 55.6605 55.5195 55.3324C55.5195 55.0043 55.7656 54.7583 56.0936 54.7583C56.4217 54.7583 56.6678 55.0043 56.6678 55.3324Z" fill="#FB9065"/>
<path d="M58.8788 57.2981C59.1959 57.2981 59.4529 57.0411 59.4529 56.724C59.4529 56.4069 59.1959 56.1499 58.8788 56.1499C58.5617 56.1499 58.3047 56.4069 58.3047 56.724C58.3047 57.0411 58.5617 57.2981 58.8788 57.2981Z" fill="#FB9065"/>
<path d="M56.6678 58.6893C56.6678 59.0174 56.4217 59.2635 56.0936 59.2635C55.7656 59.2635 55.5195 59.0174 55.5195 58.6893C55.5195 58.3613 55.7656 58.1152 56.0936 58.1152C56.4217 58.1152 56.6678 58.3613 56.6678 58.6893Z" fill="#FB9065"/>
<path d="M61.0115 59.2626C61.0115 59.5907 60.7655 59.8367 60.4374 59.8367C60.1093 59.8367 59.8633 59.5907 59.8633 59.2626C59.8633 58.9345 60.1093 58.6885 60.4374 58.6885C60.7655 58.6885 61.0115 58.9345 61.0115 59.2626Z" fill="#FB9065"/>
<path d="M63.8826 58.6893C63.8826 59.0174 63.6365 59.2635 63.3085 59.2635C62.9804 59.2635 62.7344 59.0174 62.7344 58.6893C62.7344 58.3613 62.9804 58.1152 63.3085 58.1152C63.6365 58.1152 63.8826 58.3613 63.8826 58.6893Z" fill="#FB9065"/>
<path d="M62.574 55.8964C62.574 56.2244 62.328 56.4705 61.9999 56.4705C61.6718 56.4705 61.4258 56.2244 61.4258 55.8964C61.4258 55.5683 61.6718 55.3223 61.9999 55.3223C62.328 55.3223 62.574 55.5683 62.574 55.8964Z" fill="#FB9065"/>
<path d="M87.25 55.3324C87.25 55.6605 87.496 55.9065 87.8241 55.9065C88.1522 55.9065 88.3982 55.6605 88.3982 55.3324C88.3982 55.0043 88.1522 54.7583 87.8241 54.7583C87.496 54.7583 87.25 55.0043 87.25 55.3324Z" fill="#FB9065"/>
<path d="M85.039 57.2981C85.356 57.2981 85.6131 57.0411 85.6131 56.724C85.6131 56.4069 85.356 56.1499 85.039 56.1499C84.7219 56.1499 84.4648 56.4069 84.4648 56.724C84.4648 57.0411 84.7219 57.2981 85.039 57.2981Z" fill="#FB9065"/>
<path d="M87.25 58.6893C87.25 59.0174 87.496 59.2635 87.8241 59.2635C88.1522 59.2635 88.3982 59.0174 88.3982 58.6893C88.3982 58.3613 88.1522 58.1152 87.8241 58.1152C87.496 58.1152 87.25 58.3613 87.25 58.6893Z" fill="#FB9065"/>
<path d="M82.9102 59.2626C82.9102 59.5907 83.1562 59.8367 83.4843 59.8367C83.8123 59.8367 84.0584 59.5907 84.0584 59.2626C84.0584 58.9345 83.8123 58.6885 83.4843 58.6885C83.1562 58.6885 82.9102 58.9345 82.9102 59.2626Z" fill="#FB9065"/>
<path d="M80.0352 58.6893C80.0352 59.0174 80.2812 59.2635 80.6093 59.2635C80.9373 59.2635 81.1834 59.0174 81.1834 58.6893C81.1834 58.3613 80.9373 58.1152 80.6093 58.1152C80.2812 58.1152 80.0352 58.3613 80.0352 58.6893Z" fill="#FB9065"/>
<path d="M81.3477 55.8964C81.3477 56.2244 81.5937 56.4705 81.9218 56.4705C82.2498 56.4705 82.4959 56.2244 82.4959 55.8964C82.4959 55.5683 82.2498 55.3223 81.9218 55.3223C81.5937 55.3223 81.3477 55.5683 81.3477 55.8964Z" fill="#FB9065"/>
<path d="M60.8498 59.3496C55.7648 59.3496 51.582 55.1667 51.582 50.0818C51.582 44.9968 55.7648 40.814 60.8498 40.814C65.9348 40.814 70.1176 44.9968 70.1176 50.0818C70.1176 55.2488 65.9348 59.3496 60.8498 59.3496ZM60.8498 41.7161C56.1749 41.7161 52.4022 45.4889 52.4022 50.1638C52.4022 54.8387 56.1749 58.6114 60.8498 58.6114C65.5247 58.6114 69.2975 54.8387 69.2975 50.1638C69.2155 45.4889 65.4427 41.7161 60.8498 41.7161Z" fill="#F5EFFF"/>
<path d="M83.1584 59.3496C78.0734 59.3496 73.8906 55.1667 73.8906 50.0818C73.8906 44.9968 78.0734 40.814 83.1584 40.814C88.2434 40.814 92.4262 44.9968 92.4262 50.0818C92.4262 55.2488 88.2434 59.3496 83.1584 59.3496ZM83.1584 41.7161C78.4835 41.7161 74.7108 45.4889 74.7108 50.1638C74.7108 54.8387 78.4835 58.6114 83.1584 58.6114C87.8333 58.6114 91.6061 54.8387 91.6061 50.1638C91.6061 45.4889 87.8333 41.7161 83.1584 41.7161Z" fill="#F5EFFF"/>
<path d="M91.4394 47.5347C91.3574 47.5347 91.2754 47.5347 91.1933 47.4526C91.0293 47.2886 91.0293 47.0426 91.1933 46.8785C91.2754 46.7145 94.0639 43.7619 98.1647 44.5001C98.4107 44.5001 98.5748 44.7461 98.4928 44.9922C98.4928 45.2382 98.2467 45.4023 98.0007 45.3202C94.3099 44.7461 91.8495 47.4526 91.7675 47.4526C91.6854 47.4526 91.6034 47.5347 91.4394 47.5347Z" fill="#F5EFFF"/>
<path d="M52.5632 47.3749C52.4812 47.3749 52.3172 47.2929 52.2352 47.2108C52.1532 47.1288 48.8725 43.8482 44.7717 45.2425C44.5257 45.3245 44.2796 45.1604 44.2796 44.9964C44.1976 44.7504 44.3616 44.5043 44.5257 44.5043C49.1186 42.946 52.7273 46.5547 52.8093 46.7188C52.9733 46.8828 52.9733 47.1288 52.8093 47.2929C52.7273 47.2929 52.6452 47.3749 52.5632 47.3749Z" fill="#F5EFFF"/>
<path d="M69.707 49.2583C69.6249 49.2583 69.6249 49.2583 69.707 49.2583C69.4609 49.2583 69.2969 49.0123 69.2969 48.8482C69.3789 48.1101 69.953 46.7158 72.0034 46.7158C74.0538 46.7158 74.7099 48.1101 74.7099 48.8482C74.7099 49.0943 74.5459 49.2583 74.2998 49.2583C74.0538 49.2583 73.8898 49.0943 73.8898 48.8482C73.8898 48.6842 73.7257 47.536 72.0034 47.536C70.199 47.536 70.117 48.8482 70.117 48.8482C70.035 49.0943 69.871 49.2583 69.707 49.2583Z" fill="#F5EFFF"/>
<g clip-path="url(#clip1_1962_1118)">
<path d="M4.93296 107.811L31.9749 158.421C32.25 158.933 32.8895 159.126 33.4078 158.852L69.127 139.58L69.6612 138.418C69.64 138.318 69.6127 138.231 69.5616 138.142L42.5265 87.5349C42.2545 87.0161 41.6119 86.8291 41.0937 87.1035L5.37447 106.375C4.85625 106.65 4.66095 107.292 4.93984 107.814L4.93296 107.811Z" fill="white"/>
<path d="M6.38569 103.205L4.86031 106.998L7.61861 105.51L6.38569 103.205Z" fill="white"/>
<path d="M6.35092 104.266L33.3929 154.876C33.668 155.388 34.3075 155.582 34.8257 155.308L70.5449 136.036C71.0631 135.761 71.2546 135.109 70.9796 134.597L43.9445 83.9905C43.6725 83.4716 43.0299 83.2847 42.5116 83.5591L6.79244 102.831C6.27422 103.105 6.07891 103.747 6.35781 104.269L6.35092 104.266Z" fill="#F46281"/>
<path d="M36.343 86.8831L64.3794 139.353L70.5461 136.029C71.0643 135.754 71.2558 135.103 70.9807 134.591L43.9457 83.9837C43.6736 83.4648 43.031 83.2779 42.5128 83.5523L36.3461 86.8762L36.343 86.8831Z" fill="#DB3762"/>
<path d="M23.2628 113.566L37.1719 106.062L34.0884 100.291L20.1793 107.795L23.2628 113.566Z" fill="white"/>
</g>
</g>
<defs>
<clipPath id="clip0_1962_1118">
<rect width="144" height="122" fill="white"/>
</clipPath>
<clipPath id="clip1_1962_1118">
<rect width="73.3029" height="72.1922" fill="white" transform="translate(-10 139.956) rotate(-65.982)"/>
</clipPath>
</defs>
</svg>
