<svg width="144" height="122" viewBox="0 0 144 122" fill="none" xmlns="http://www.w3.org/2000/svg">
<g clip-path="url(#clip0_1679_143)">
<g clip-path="url(#clip1_1679_143)">
<path d="M24.8708 94.3101C20.6908 119.75 0.520782 142.37 -3.21922 150.54C-5.91922 148.61 -17.9592 129.36 -29.7892 112.83L-51.6992 130.39C-41.4292 158.51 -11.4892 204.4 2.25078 197.45C33.3508 181.73 46.3308 137.7 47.9108 103.09L24.8708 94.3101Z" fill="#86AFFE"/>
<path d="M9.18188 226.9C26.0719 226.45 36.1819 224.06 45.2419 216.34C62.8819 233.96 105.592 233.8 105.592 233.8C99.6919 211.82 98.8119 198.24 99.8019 187.88C100.332 161.48 146.462 104.33 109.982 89.7999C92.2219 82.6099 70.1419 86.8199 53.4619 87.8999C44.3919 88.9399 36.7819 89.0399 28.8019 91.1899C19.2219 94.0799 21.9019 117.34 17.0919 127.92C7.58187 151.24 5.81188 159.09 20.7919 175.11C20.7219 187.3 13.0719 222.33 9.17188 226.89L9.18188 226.9Z" fill="#86AFFE"/>
<path d="M56.2571 88.2183C56.5795 88.2292 56.8497 88.2411 57.0575 88.2515C56.7813 96.5459 55.2176 106.217 53.7043 113.882C52.9332 117.788 52.1764 121.168 51.6125 123.57C51.4032 124.462 51.2205 125.219 51.0736 125.818L46.7899 114.075L50.4 110.38L51.0487 109.716L50.1374 109.539L45.8727 108.714L44.9212 89.1561C47.4848 88.4807 50.5425 88.2523 53.0231 88.1989C54.3208 88.1711 55.4514 88.1912 56.2571 88.2183Z" fill="white" stroke="#F5F5F5"/>
<path d="M87.6573 85.6348L87.6761 85.6395L87.6951 85.6428L102.496 88.1967L86.9056 109.795L74.6701 109.061L73.8191 109.01L74.1899 109.778L78.5057 118.711L52.9242 126.472C53.8052 125.585 55.0577 124.312 56.5648 122.755C59.61 119.607 63.6962 115.293 67.8584 110.624C72.0193 105.957 76.2623 100.93 79.6179 96.3583C81.2956 94.0728 82.7565 91.8946 83.8754 89.9277C84.8667 88.1851 85.6034 86.5849 85.9766 85.2088L87.6573 85.6348Z" fill="white" stroke="#F5F5F5"/>
<path d="M86.6702 85.9399C86.6702 85.9399 78.8702 103.45 51.1602 127.52C51.1602 127.52 52.3002 108.99 57.5802 89.0499C57.5802 89.0499 74.2702 94.4999 86.6702 85.9399Z" fill="#86AFFE"/>
<path d="M58.0815 87.1102C51.4315 113.8 82.8315 96.6302 86.6715 85.9502L58.0815 87.1102Z" fill="#FFA672"/>
<path d="M107.594 77.69L37.2036 79.08C46.2436 69.3 26.4236 43.3 45.1736 19.32C61.8836 3.88996 86.1136 4.40996 98.4536 22.58C116.634 41.83 98.1236 66.98 107.584 77.68L107.594 77.69Z" fill="black"/>
<path d="M78.3398 10.8298C82.5698 -14.4802 124.4 9.27981 99.1798 26.6998C85.7998 33.3998 78.3398 10.8298 78.3398 10.8298Z" fill="black"/>
<path d="M82.2219 67.9697C106.242 61.0397 105.242 7.27969 67.5019 12.9897C67.5019 12.9897 62.3719 67.2897 82.2219 67.9697Z" fill="black"/>
<path d="M41.9934 27.8296C41.8034 28.5596 35.1535 57.9796 47.2235 43.0896C47.2235 43.0896 45.0634 28.3996 41.9934 27.8296Z" fill="black"/>
<path d="M46.8332 48.6198C37.8132 39.2998 36.4632 64.8498 46.3732 61.8398L46.8332 48.6198Z" fill="#FFA672"/>
<path d="M57.8125 73.58L58.0825 87.11C58.0825 87.11 65.6625 100.51 86.6725 85.95C82.5525 81.53 82.0425 70.97 83.5625 65.75C77.2225 69.65 66.5325 73.95 57.8225 73.59L57.8125 73.58Z" fill="#FFA672"/>
<path d="M57.8125 73.58L57.9325 79.91C63.6925 78.51 73.7725 75.15 79.4625 68.02C73.4425 70.8 65.3925 73.93 57.8125 73.58Z" fill="#B22E2E"/>
<path d="M42.68 48.6896C38.63 86.2096 72.72 72.2596 83.52 65.9096C85.39 50.0296 89.72 26.9796 71.98 19.8996C51.77 16.0596 40.73 27.0396 42.67 48.6796L42.68 48.6896Z" fill="#FFA672"/>
<path d="M60.5834 33.4497C60.5834 33.4497 58.2334 33.7297 59.1034 35.8697C59.9734 38.0097 64.6534 35.5397 68.1234 39.4597C68.1234 39.4597 69.4634 34.2497 60.5834 33.4497Z" fill="black"/>
<path d="M49.893 33.6597C49.893 33.6597 52.253 33.8497 51.473 36.0197C50.683 38.1997 45.913 35.9097 42.603 39.9597C42.603 39.9597 41.063 34.7997 49.893 33.6597Z" fill="black"/>
<path d="M61.6711 50.2897C61.5611 52.8597 72.0011 52.6597 71.7911 50.0897C71.9011 47.5197 61.4611 47.7197 61.6711 50.2897Z" fill="#FB9065"/>
<path d="M53.2422 58.8199C57.4522 58.7699 62.9622 54.7899 59.6422 54.9599C59.3922 55.1699 53.4322 60.1699 48.7922 55.8199C48.5422 55.5899 48.1522 55.5999 47.9122 55.8499C47.6722 58.0999 51.8822 58.8399 53.2322 58.8199H53.2422Z" fill="#B22E2E"/>
<path d="M42.6836 48.6899C42.7136 50.0899 42.7536 51.4099 42.7936 52.6499C48.7536 52.3699 48.6336 48.7099 42.6836 48.6899Z" fill="#FB9065"/>
<path d="M62.8617 46.1199C62.9017 49.6699 66.0217 49.6099 65.9217 46.0599C65.8817 42.5099 62.7617 42.5699 62.8617 46.1199Z" fill="#1D1612"/>
<path d="M47.9125 46.4197C47.9525 49.9697 51.0725 49.9097 50.9725 46.3597C50.9325 42.8097 47.8125 42.8697 47.9125 46.4197Z" fill="#1D1612"/>
<path d="M78.4709 59.8896C78.5409 60.0596 80.6309 64.6396 83.5109 65.9296C83.5209 65.9196 83.5209 65.9097 83.5209 65.9097C83.7309 64.8497 83.9209 63.7996 84.0909 62.7696C83.9809 62.7496 81.0909 62.3096 78.4609 59.8896H78.4709Z" fill="#1D1612"/>
<path d="M81.0334 49.3399C81.0334 49.3399 86.9134 41.1099 91.4634 47.3999C95.2134 52.5799 88.6234 66.7099 81.1334 61.7399L81.0234 49.3399H81.0334Z" fill="#FFA672"/>
<path d="M82.0516 59.3999C82.3616 59.3999 82.6316 59.1499 82.6616 58.8299C83.3916 51.4699 88.8416 51.2899 88.8616 49.5199C88.9416 47.6099 79.6116 53.9099 82.0516 59.3899V59.3999Z" fill="#B22E2E"/>
<path d="M87.7798 55.52C90.4698 54.9 83.7198 51.24 83.3398 53.78C83.4298 54.11 83.7798 54.3 84.1098 54.21C85.4898 53.86 86.9098 55.27 87.7798 55.52Z" fill="#B22E2E"/>
<path d="M61.0222 37.8699C72.4422 34.9399 76.7822 52.9299 65.2922 55.5399C53.8722 58.4699 49.5322 40.4799 61.0222 37.8699ZM64.9822 54.2599C74.8022 52.0299 71.0922 36.6699 61.3422 39.1699C51.5222 41.3999 55.2322 56.7599 64.9822 54.2599Z" fill="white"/>
<path d="M71.5505 45.7496C76.5005 44.1496 81.4205 46.3396 81.3605 46.4296C84.9805 45.6596 77.2905 42.4696 71.4005 44.4496C70.7105 44.6396 70.8405 45.7196 71.5505 45.7496Z" fill="white"/>
<path d="M40.7918 37.5598C52.2118 34.6298 56.5518 52.6198 45.0618 55.2298C33.6418 58.1598 29.3018 40.1698 40.7918 37.5598ZM44.7418 53.9398C54.5618 51.7098 50.8518 36.3498 41.1018 38.8498C31.2818 41.0798 34.9918 56.4398 44.7418 53.9398Z" fill="white"/>
<path d="M54.3112 14.1699C48.5212 15.9299 43.6312 19.9399 40.9812 25.3799C39.3212 28.7899 37.7112 33.3599 42.8012 33.3999C56.6812 33.4999 65.8212 20.2599 65.8212 20.2599C65.8212 20.2599 66.8012 33.6699 77.7412 33.4599C103.071 29.3999 73.7712 6.17992 54.3112 14.1699Z" fill="black"/>
<path d="M77.5111 31.8998C85.7711 40.8698 73.3111 53.7798 77.5011 62.5198C77.5011 62.5198 79.0511 55.1598 82.4911 49.8798C85.3211 45.5398 87.8611 42.2898 86.9311 36.7498C86.2911 32.9398 84.0711 29.0798 77.5111 31.8998Z" fill="black"/>
<path d="M51.8314 51.2696C52.6114 51.6496 56.9614 49.7696 54.0814 49.4196C53.1314 49.9596 52.1614 50.0396 51.5414 50.0196L53.4714 44.1096C52.5914 40.2996 50.4114 50.1496 50.1214 50.3596C50.0614 51.3296 50.6414 51.1996 51.8314 51.2696Z" fill="#B22E2E"/>
<path d="M55.242 45.0797C57.602 43.8197 50.842 41.5597 50.582 44.6197C50.762 44.9397 51.172 45.0497 51.492 44.8597C53.952 43.6597 54.222 45.3197 55.242 45.0797Z" fill="white"/>
<path d="M119.58 95.96C166.44 156.35 204.97 203.03 125.08 258.24L110.88 236.23C159.96 184.34 118.22 168.74 90.3203 118.35L119.58 95.96Z" fill="#86AFFE"/>
<path d="M20.9363 115.771L20.9364 115.771L20.9388 115.761C20.9782 115.587 21.1525 115.479 21.3204 115.518C21.4939 115.557 21.6019 115.731 21.5637 115.899L21.5636 115.899L21.562 115.907C21.562 115.907 21.562 115.907 21.5618 115.908C21.5614 115.909 21.5604 115.914 21.5583 115.924L21.5473 115.973L21.5073 116.149C21.4729 116.301 21.4233 116.519 21.3602 116.796C21.2338 117.35 21.0532 118.138 20.8313 119.099C20.3874 121.02 19.7783 123.632 19.1074 126.443C17.764 132.07 16.1778 138.471 15.1735 141.722L15.1733 141.723C14.871 142.708 14.4601 143.717 14.0182 144.801L14.0182 144.801L14.0095 144.823C12.8939 147.562 11.6011 150.736 11.7994 154.644C11.9988 158.575 13.6987 163.177 18.417 168.82C18.5352 168.964 18.5123 169.164 18.3853 169.272C18.3219 169.322 18.2538 169.346 18.1735 169.351L18.1238 169.354C18.038 169.339 17.9683 169.3 17.9233 169.247C12.9917 163.346 11.3373 158.55 11.1608 154.579C10.9837 150.595 12.2876 147.373 13.4243 144.569C13.8529 143.522 14.2615 142.512 14.5592 141.537C15.565 138.283 17.1487 131.881 18.4838 126.285C19.1523 123.483 19.7598 120.877 20.2032 118.959C20.425 118 20.6057 117.213 20.7326 116.66L20.8808 116.013L20.9215 115.835L20.9328 115.786C20.9346 115.779 20.9356 115.774 20.9361 115.772C20.9362 115.772 20.9363 115.772 20.9363 115.771Z" fill="white" stroke="#F5F5F5"/>
</g>
<g clip-path="url(#clip2_1679_143)">
<path d="M4.93296 107.811L31.9749 158.421C32.25 158.933 32.8895 159.126 33.4078 158.852L69.127 139.58L69.6612 138.418C69.64 138.318 69.6127 138.231 69.5616 138.142L42.5265 87.5349C42.2545 87.0161 41.6119 86.8291 41.0937 87.1035L5.37447 106.375C4.85625 106.65 4.66095 107.292 4.93984 107.814L4.93296 107.811Z" fill="white"/>
<path d="M6.38569 103.205L4.86031 106.998L7.61861 105.51L6.38569 103.205Z" fill="white"/>
<path d="M6.35092 104.266L33.3929 154.876C33.668 155.388 34.3075 155.582 34.8257 155.308L70.5449 136.036C71.0631 135.761 71.2546 135.109 70.9796 134.597L43.9445 83.9905C43.6725 83.4716 43.0299 83.2847 42.5116 83.5591L6.79244 102.831C6.27422 103.105 6.07891 103.747 6.35781 104.269L6.35092 104.266Z" fill="#F46281"/>
<path d="M36.343 86.8831L64.3794 139.353L70.5461 136.029C71.0643 135.754 71.2558 135.103 70.9807 134.591L43.9457 83.9837C43.6736 83.4648 43.031 83.2779 42.5128 83.5523L36.3461 86.8762L36.343 86.8831Z" fill="#DB3762"/>
<path d="M23.2628 113.566L37.1719 106.062L34.0884 100.291L20.1793 107.795L23.2628 113.566Z" fill="white"/>
</g>
</g>
<defs>
<clipPath id="clip0_1679_143">
<rect width="144" height="122" fill="white"/>
</clipPath>
<clipPath id="clip1_1679_143">
<rect width="237.23" height="272.42" fill="white" transform="translate(-66 -0.209961)"/>
</clipPath>
<clipPath id="clip2_1679_143">
<rect width="73.3029" height="72.1922" fill="white" transform="translate(-10 139.956) rotate(-65.982)"/>
</clipPath>
</defs>
</svg>
